{
	"buffers":[{
		"uri":"data:application/octet-stream;base64,",
		"byteLength":1816
	},
	{
		"uri":"data:application/octet-stream;base64,",
		"byteLength":13208
	},
	{
		"uri":"data:application/octet-stream;base64,",
		"byteLength":25672
	},
	{
		"uri":"data:application/octet-stream;base64,",
		"byteLength":104
	},
	{
		"uri":"data:application/octet-stream;base64,",
		"byteLength":407808
	}],
	"asset":{
		"version":"2.0",
		"generator":"Created using the official Cinema 4D glTF Exporter 1.000x284978"
	},
	"scenes":[{
		"nodes":[0]
	}],
	"nodes":[{
		"name":"earbuds",
		"translation":[-33.46225357055664,
		153.20773315429688,
		-9.360737800598145],
		"rotation":[-0.1344657838344574,
		0.13477157056331635,
		-0.022210046648979188,
		-0.9814592599868774],
		"scale":[1.0,
		1.0,
		1.0],
		"children":[1,
		2,
		3]
	},
	{
		"name":"extrude",
		"translation":[379.5175476074219,
		-362.14678955078127,
		-446.19757080078127],
		"rotation":[0.1358003318309784,
		-0.05679631605744362,
		0.011515259742736817,
		-0.9890398383140564],
		"scale":[1.0,
		1.0,
		1.0],
		"children":[4]
	},
	{
		"name":"extrude",
		"mesh":0,
		"translation":[379.54876708984377,
		-358.05682373046877,
		-447.34417724609377],
		"rotation":[0.1358003318309784,
		-0.05679631605744362,
		0.011515259742736817,
		-0.9890398383140564],
		"scale":[1.0,
		1.0,
		1.0]
	},
	{
		"name":"earbuds",
		"translation":[-147.63946533203126,
		174.9454803466797,
		359.6717529296875],
		"rotation":[0.0,
		-1.2246468525851679e-16,
		0.0,
		1.0],
		"scale":[1.0,
		1.0,
		1.0],
		"children":[5]
	},
	{
		"name":"extrude",
		"mesh":1
	},
	{
		"name":"earbud",
		"translation":[241.1868133544922,
		-64.23515319824219,
		-185.98594665527345],
		"rotation":[0.45027628540992739,
		-0.47807058691978457,
		0.5489638447761536,
		0.5170478820800781],
		"scale":[1.0,
		1.0,
		1.0],
		"children":[6,
		7]
	},
	{
		"name":"subvision surface object",
		"translation":[209.27711486816407,
		-61.28113555908203,
		-75.58792114257813],
		"rotation":[0.003406606148928404,
		-0.055720310658216479,
		0.11248425394296646,
		-0.9920841455459595],
		"scale":[1.0,
		1.0,
		1.0],
		"children":[8]
	},
	{
		"name":"polygon object",
		"mesh":2,
		"translation":[-209.27711486816407,
		61.28113555908203,
		75.58792114257813],
		"rotation":[0.0,
		0.0,
		0.0,
		-1.0],
		"scale":[1.0,
		1.0,
		1.0]
	},
	{
		"name":"cloth",
		"translation":[92.2915267944336,
		-4.440892098500626e-15,
		248.12872314453126],
		"rotation":[0.4825916886329651,
		-0.5567953586578369,
		-0.5250703692436218,
		0.42589351534843447],
		"scale":[1.0,
		1.0,
		1.0],
		"children":[9]
	},
	{
		"name":"loft",
		"mesh":3
	}],
	"meshes":[{
		"name":"extrude",
		"primitives":[{
			"attributes":{
				"NORMAL":2,
				"POSITION":1,
				"TEXCOORD_0":3
			},
			"indices":0
		}]
	},
	{
		"name":"extrude",
		"primitives":[{
			"attributes":{
				"NORMAL":6,
				"POSITION":5,
				"TEXCOORD_0":7
			},
			"indices":4,
			"material":0
		}]
	},
	{
		"name":"polygon object",
		"primitives":[{
			"attributes":{
				"NORMAL":10,
				"POSITION":9,
				"TEXCOORD_0":11
			},
			"indices":8,
			"material":0
		}]
	},
	{
		"name":"loft",
		"primitives":[{
			"attributes":{
				"NORMAL":20,
				"POSITION":19,
				"TEXCOORD_0":21
			},
			"indices":18,
			"material":1
		}]
	}],
	"accessors":[{
		"bufferView":0,
		"type":"SCALAR",
		"componentType":5123,
		"count":108,
		"byteOffset":0,
		"min":[0],
		"max":[49]
	},
	{
		"bufferView":1,
		"type":"VEC3",
		"componentType":5126,
		"count":50,
		"byteOffset":0,
		"min":[-479.59149169921877,
		283.25823974609377,
		442.0050354003906],
		"max":[-404.7166442871094,
		298.7204895019531,
		517.7689208984375]
	},
	{
		"bufferView":1,
		"type":"VEC3",
		"componentType":5126,
		"count":50,
		"byteOffset":12,
		"min":[-0.997944176197052,
		-0.9904431700706482,
		-0.990434467792511],
		"max":[0.9992640614509583,
		0.9904431700706482,
		0.9893209934234619]
	},
	{
		"bufferView":1,
		"type":"VEC2",
		"componentType":5126,
		"count":50,
		"byteOffset":24,
		"min":[0.0,
		0.0],
		"max":[1.0,
		1.0]
	},
	{
		"bufferView":2,
		"type":"SCALAR",
		"componentType":5123,
		"count":972,
		"byteOffset":0,
		"min":[0],
		"max":[351]
	},
	{
		"bufferView":3,
		"type":"VEC3",
		"componentType":5126,
		"count":352,
		"byteOffset":0,
		"min":[-455.9963684082031,
		292.3356018066406,
		465.3743896484375],
		"max":[-432.52093505859377,
		300.228759765625,
		493.76312255859377]
	},
	{
		"bufferView":3,
		"type":"VEC3",
		"componentType":5126,
		"count":352,
		"byteOffset":12,
		"min":[-0.9997437596321106,
		-0.993721604347229,
		-0.9935575127601624],
		"max":[0.9996424317359924,
		0.9937236905097961,
		0.9871935248374939]
	},
	{
		"bufferView":3,
		"type":"VEC2",
		"componentType":5126,
		"count":352,
		"byteOffset":24,
		"min":[0.0,
		0.0],
		"max":[1.0,
		1.0]
	},
	{
		"bufferView":4,
		"type":"SCALAR",
		"componentType":5123,
		"count":3012,
		"byteOffset":0,
		"min":[0],
		"max":[613]
	},
	{
		"bufferView":5,
		"type":"VEC3",
		"componentType":5126,
		"count":614,
		"byteOffset":0,
		"min":[-88.92362976074219,
		-53.075294494628909,
		-55.0965461730957],
		"max":[120.22148895263672,
		154.82810974121095,
		105.41424560546875]
	},
	{
		"bufferView":5,
		"type":"VEC3",
		"componentType":5126,
		"count":614,
		"byteOffset":12,
		"min":[-0.9984963536262512,
		-0.999415934085846,
		-1.0],
		"max":[0.9999398589134216,
		0.9999085068702698,
		1.0]
	},
	{
		"bufferView":5,
		"type":"VEC2",
		"componentType":5126,
		"count":614,
		"byteOffset":24,
		"min":[0.0,
		0.0],
		"max":[1.0,
		1.0]
	},
	{
		"bufferView":6,
		"type":"SCALAR",
		"componentType":5126,
		"count":2,
		"byteOffset":0,
		"min":[0.0],
		"max":[3.0]
	},
	{
		"bufferView":6,
		"type":"VEC3",
		"componentType":5126,
		"count":2,
		"byteOffset":8,
		"min":[-209.27711486816407,
		61.28113555908203,
		75.58792114257813],
		"max":[-209.27711486816407,
		61.28113555908203,
		75.58792114257813]
	},
	{
		"bufferView":7,
		"type":"SCALAR",
		"componentType":5126,
		"count":2,
		"byteOffset":0,
		"min":[0.0],
		"max":[3.0]
	},
	{
		"bufferView":7,
		"type":"VEC4",
		"componentType":5126,
		"count":2,
		"byteOffset":8,
		"min":[0.0,
		0.0,
		0.0,
		-1.0],
		"max":[0.0,
		0.0,
		0.0,
		-1.0]
	},
	{
		"bufferView":8,
		"type":"SCALAR",
		"componentType":5126,
		"count":2,
		"byteOffset":0,
		"min":[0.0],
		"max":[3.0]
	},
	{
		"bufferView":8,
		"type":"VEC3",
		"componentType":5126,
		"count":2,
		"byteOffset":8,
		"min":[1.0,
		1.0,
		1.0],
		"max":[1.0,
		1.0,
		1.0]
	},
	{
		"bufferView":9,
		"type":"SCALAR",
		"componentType":5123,
		"count":55296,
		"byteOffset":0,
		"min":[0],
		"max":[9287]
	},
	{
		"bufferView":10,
		"type":"VEC3",
		"componentType":5126,
		"count":9288,
		"byteOffset":0,
		"min":[3.8442258834838869,
		-16.156736373901368,
		475.74200439453127],
		"max":[105.42913818359375,
		64.09489440917969,
		598.8177490234375]
	},
	{
		"bufferView":10,
		"type":"VEC3",
		"componentType":5126,
		"count":9288,
		"byteOffset":12,
		"min":[-0.9985893964767456,
		-0.998698353767395,
		-0.9992416501045227],
		"max":[0.9985715746879578,
		0.9985312819480896,
		0.9992489218711853]
	},
	{
		"bufferView":10,
		"type":"VEC2",
		"componentType":5126,
		"count":9288,
		"byteOffset":24,
		"min":[0.0,
		0.00390625],
		"max":[1.0,
		0.99609375]
	}],
	"bufferViews":[{
		"buffer":0,
		"byteOffset":0,
		"byteLength":216,
		"target":34963
	},
	{
		"buffer":0,
		"byteOffset":216,
		"byteLength":1600,
		"target":34962,
		"byteStride":32
	},
	{
		"buffer":1,
		"byteOffset":0,
		"byteLength":1944,
		"target":34963
	},
	{
		"buffer":1,
		"byteOffset":1944,
		"byteLength":11264,
		"target":34962,
		"byteStride":32
	},
	{
		"buffer":2,
		"byteOffset":0,
		"byteLength":6024,
		"target":34963
	},
	{
		"buffer":2,
		"byteOffset":6024,
		"byteLength":19648,
		"target":34962,
		"byteStride":32
	},
	{
		"buffer":3,
		"byteOffset":0,
		"byteLength":32
	},
	{
		"buffer":3,
		"byteOffset":32,
		"byteLength":40
	},
	{
		"buffer":3,
		"byteOffset":72,
		"byteLength":32
	},
	{
		"buffer":4,
		"byteOffset":0,
		"byteLength":110592,
		"target":34963
	},
	{
		"buffer":4,
		"byteOffset":110592,
		"byteLength":297216,
		"target":34962,
		"byteStride":32
	}],
	"materials":[{
		"pbrMetallicRoughness":{
			"baseColorFactor":[0.602599616450032,
			0.5872576177285319,
			0.736842105263158,
			1.0],
			"metallicFactor":1.0,
			"roughnessFactor":1.0
		},
		"emissiveFactor":[0.0,
		0.0,
		0.0],
		"alphaMode":"OPAQUE",
		"name":"earbud",
		"doubleSided":true
	},
	{
		"pbrMetallicRoughness":{
			"baseColorFactor":[0.5427044172932332,
			0.5427044172932332,
			0.5427044172932332,
			1.0],
			"metallicFactor":1.0,
			"roughnessFactor":1.0
		},
		"emissiveFactor":[0.0,
		0.0,
		0.0],
		"alphaMode":"OPAQUE",
		"name":"earbud-cup",
		"doubleSided":true
	}],
	"animations":[{
		"samplers":[{
			"input":12,
			"output":13,
			"interpolation":"LINEAR"
		},
		{
			"input":14,
			"output":15,
			"interpolation":"LINEAR"
		},
		{
			"input":16,
			"output":17,
			"interpolation":"LINEAR"
		}],
		"channels":[{
			"sampler":0,
			"target":{
				"node":7,
				"path":"translation"
			}
		},
		{
			"sampler":1,
			"target":{
				"node":7,
				"path":"rotation"
			}
		},
		{
			"sampler":2,
			"target":{
				"node":7,
				"path":"scale"
			}
		}]
	}]
}